<svg width="460" height="460" xmlns="http://www.w3.org/2000/svg">
 <!-- Font Awesome Pro 5.15.4 by @fontawesome - https://fontawesome.com License - https://fontawesome.com/license (Commercial License) -->

 <g>
  <title>Layer 1</title>
  <rect stroke-dasharray="5,2,2,2,2,2" fill="#535F75" rx="80" id="svg_2" height="460" width="460" y="0" x="0" stroke="null"/>
  <path stroke="null" fill="#D3BEE7" id="svg_1" d="m324.87501,333.62501l-204.75001,0c-4.33125,0 -7.875,3.86719 -7.875,8.59375l0,17.1875c0,4.72656 3.54375,8.59375 7.875,8.59375l204.75001,0c4.33125,0 7.875,-3.86719 7.875,-8.59375l0,-17.1875c0,-4.72656 -3.54375,-8.59375 -7.875,-8.59375zm31.5,-171.87501c-13.04297,0 -23.625,11.54785 -23.625,25.78125c0,3.81348 0.7875,7.3584 2.16563,10.63477l-35.63438,23.31055c-7.57969,4.94141 -17.37422,2.14844 -21.75469,-6.23047l-40.11328,-76.5918c5.26641,-4.72656 8.71172,-11.81641 8.71172,-19.87305c0,-14.2334 -10.58203,-25.78125 -23.625,-25.78125s-23.625,11.54785 -23.625,25.78125c0,8.05664 3.44531,15.14648 8.71172,19.87305l-40.11328,76.5918c-4.38047,8.37891 -14.22422,11.17188 -21.75469,6.23047l-35.58516,-23.31055c1.32891,-3.22266 2.16563,-6.82129 2.16563,-10.63477c0,-14.2334 -10.58203,-25.78125 -23.625,-25.78125s-23.67422,11.54785 -23.67422,25.78125s10.58203,25.78125 23.625,25.78125c1.27969,0 2.55938,-0.21484 3.78984,-0.42969l35.58516,103.55469l189.00001,0l35.58516,-103.55469c1.23047,0.21484 2.51016,0.42969 3.78984,0.42969c13.04297,0 23.625,-11.54785 23.625,-25.78125s-10.58203,-25.78125 -23.625,-25.78125z"/>
 </g>
</svg>